<?xml version="1.0" encoding="iso-8859-1"?>
<!-- Generator: Adobe Illustrator 19.0.0, SVG Export Plug-In . SVG Version: 6.00 Build 0)  -->
<svg version="1.1" id="Capa_1" xmlns="http://www.w3.org/2000/svg" xmlns:xlink="http://www.w3.org/1999/xlink" x="0px" y="0px"
	 viewBox="0 0 512.001 512.001" style="enable-background:new 0 0 512.001 512.001;" xml:space="preserve">
<g>
	<g>
		<path d="M486.302,68.312c-4.127-16.043-13.88-29.913-27.463-39.056c-15.735-10.582-34.53-14.063-52.921-9.805
			c-18.133,4.199-33.868,15.847-43.171,31.961c-7.223,12.526-10.199,26.723-8.607,41.05c0.316,2.858-0.486,5.64-2.25,7.821
			c-22.013,27.132-32.849,40.492-56.594,69.77l-49.374,60.875H39.705c-8.42,0-15.27,6.854-15.27,15.28v28.27
			c0,8.312,0.55,16.644,1.636,24.764c0.504,3.769,3.724,6.507,7.425,6.507c0.331,0,0.666-0.022,1.003-0.067
			c4.106-0.549,6.989-4.322,6.44-8.427c-0.998-7.464-1.504-15.127-1.504-22.776v-28.27c0-0.149,0.126-0.28,0.27-0.28h209.789
			h152.219h44.339c0.152,0,0.28,0.128,0.28,0.28v28.27c0,7.427-0.487,14.941-1.448,22.333c-0.534,4.107,2.363,7.87,6.471,8.404
			c4.107,0.53,7.87-2.364,8.404-6.471c1.043-8.03,1.573-16.195,1.573-24.266v-28.27c0-8.426-6.854-15.28-15.28-15.28h-33.438
			c12.014-31.393,18.156-47.433,29.974-78.28c1-2.613,3.049-4.716,5.758-5.915c14.287-6.293,25.619-16.997,32.771-30.953
			C488.587,101.207,490.428,84.349,486.302,68.312z M467.769,108.938c-5.563,10.856-14.371,19.179-25.481,24.073
			c-6.403,2.834-11.271,7.905-13.708,14.274c-12.472,32.553-18.623,48.618-32.026,83.643h-131.32l41.71-51.426
			c23.746-29.277,34.582-42.637,56.601-69.778c4.307-5.327,6.261-12.042,5.502-18.914c-1.237-11.134,1.078-22.167,6.691-31.902
			c7.337-12.708,19.257-21.532,33.563-24.845c14.299-3.313,28.917-0.599,41.163,7.637c10.53,7.088,18.098,17.865,21.31,30.348
			C474.986,84.532,473.563,97.632,467.769,108.938z"/>
	</g>
</g>
<g>
	<g>
		<path d="M448.179,319.875c-3.958-1.217-8.156,1.007-9.372,4.967c-14.22,46.294-47.628,84.584-91.658,105.053
			c-5.33,2.478-8.773,7.9-8.773,13.814v24.3c0,0.15-0.123,0.273-0.273,0.273H185.495c-4.142,0-7.5,3.358-7.5,7.5
			c0,4.142,3.358,7.5,7.5,7.5h152.607c8.422,0,15.273-6.852,15.273-15.273v-24.3c0-0.114,0.058-0.194,0.097-0.212
			c47.878-22.258,84.208-63.901,99.674-114.251C454.362,325.287,452.138,321.091,448.179,319.875z"/>
	</g>
</g>
<g>
	<g>
		<path d="M206.305,388.762c14.313-12.118,25.957-27.271,33.948-44.316c2.591-5.52,2.311-11.982-0.751-17.287
			c-3.063-5.307-8.521-8.785-14.59-9.303c-2.683-0.232-5.412-0.383-8.111-0.446c-4.169-0.112-7.577,3.18-7.675,7.321
			c-0.097,4.141,3.181,7.577,7.321,7.675c2.386,0.056,4.798,0.189,7.18,0.395c2.554,0.218,4.127,2.969,3.046,5.273
			c-7.564,16.134-18.81,30.361-32.696,41.424c-7.471-4.938-15.706-9.269-24.199-12.643c-1.757-0.696-3.571-1.371-5.405-2.007
			c-0.104-0.036-0.209-0.068-0.313-0.104c-4.146-5.403-9.552-9.558-15.657-12.191c12.054-8.19,25.701-14.237,40.453-17.48
			c4.045-0.89,6.604-4.89,5.714-8.936c-0.89-4.046-4.892-6.602-8.936-5.714c-5.457,1.2-10.843,2.756-16.1,4.646
			c-3.342-18.458-10.639-36.111-21.397-51.541c-3.492-5.006-9.232-7.995-15.356-7.995c-6.125,0-11.865,2.989-15.357,7.996
			c-10.761,15.435-18.06,33.095-21.4,51.56c-17.661-6.336-36.609-8.843-55.364-7.233c-6.08,0.518-11.538,3.996-14.601,9.303
			c-3.062,5.305-3.342,11.767-0.752,17.283c7.993,17.05,19.638,32.204,33.949,44.32c-14.311,12.129-25.955,27.28-33.951,44.316
			c-2.589,5.531-2.305,12.002,0.762,17.309c3.063,5.302,8.519,8.776,14.59,9.293c3.702,0.317,7.408,0.475,11.113,0.475
			c15.072,0,30.079-2.615,44.257-7.705c3.341,18.46,10.639,36.115,21.395,51.544c3.491,5.014,9.233,8.007,15.359,8.007
			c6.127,0,11.869-2.993,15.357-8.003c10.759-15.431,18.056-33.087,21.398-51.547c17.69,6.352,36.63,8.834,55.365,7.229
			c6.075-0.518,11.53-3.992,14.594-9.293c3.066-5.307,3.351-11.777,0.759-17.316C232.262,416.042,220.62,400.894,206.305,388.762z
			 M108.955,345.477c0.079-3.032,0.277-6.086,0.59-9.114c2.015-19.447,8.994-38.207,20.182-54.254
			c0.956-1.371,2.323-1.575,3.053-1.575c0.729,0,2.097,0.205,3.052,1.575c10.183,14.605,16.879,31.458,19.52,49.03
			c-10.48,5.242-19.626,11.477-27.746,18.53c-6.822,0.898-13.103,3.535-18.37,7.467c-0.212-2.872-0.321-5.757-0.321-8.637
			C108.915,347.495,108.928,346.487,108.955,345.477z M38.885,338.071c-0.705-1.501-0.199-2.783,0.165-3.414
			c0.365-0.632,1.225-1.714,2.886-1.855c17.75-1.521,35.696,1.102,52.229,7.596c-0.677,11.03,0.02,22.217,2.172,33.29
			c-2.512,6.051-3.531,12.739-2.728,19.656C70.022,381.933,50.46,362.76,38.885,338.071z M99.015,435.094
			c-17.835,7.979-37.571,11.311-57.083,9.641c-2.558-0.219-4.129-2.98-3.047-5.291c7.564-16.117,18.811-30.344,32.697-41.421
			c14.967,9.891,26.658,13.412,29.959,14.785c4.065,5.269,9.426,9.486,15.607,12.164c-2.377,1.612-4.823,3.148-7.324,4.596
			C106.381,431.563,102.845,433.371,99.015,435.094z M156.015,441.163c0,0.002,0,0.005,0,0.008
			c-2.017,19.443-8.995,38.201-20.185,54.251c-0.957,1.373-2.321,1.578-3.05,1.578s-2.093-0.205-3.052-1.582
			c-10.183-14.606-16.879-31.459-19.52-49.03c10.357-5.169,19.251-11.24,27.729-18.524c6.764-0.876,13.062-3.461,18.39-7.429
			c0.211,2.86,0.318,5.735,0.318,8.603C156.645,433.057,156.433,437.137,156.015,441.163z M156.864,392.991
			c-0.399,2.302-1.129,4.526-2.185,6.646c-0.001,0.001-0.001,0.002-0.001,0.003c-4.167,8.369-12.559,13.568-21.904,13.568
			c-13.476,0-24.439-10.964-24.439-24.44c0-13.481,10.963-24.45,24.439-24.45c8.211,0,15.827,4.086,20.378,10.937
			c2.664,4,4.072,8.673,4.072,13.513C157.224,390.2,157.104,391.61,156.864,392.991z M226.507,442.883
			c-1.064,1.842-2.783,1.804-2.883,1.853c-17.753,1.52-35.7-1.104-52.229-7.603c0.658-10.709,0.028-21.973-2.166-33.266
			c2.634-6.331,3.48-13.191,2.733-19.67c25.425,12.478,43.794,31.984,54.71,55.241C227.383,440.957,226.874,442.249,226.507,442.883
			z"/>
	</g>
</g>
<g>
	<g>
		<path d="M108.988,121.54c-13.876,0-25.164,11.289-25.164,25.164s11.289,25.164,25.164,25.164s25.164-11.288,25.164-25.164
			C134.152,132.828,122.864,121.54,108.988,121.54z M108.988,156.868c-5.604,0-10.164-4.56-10.164-10.164s4.56-10.164,10.164-10.164
			c5.604,0,10.164,4.56,10.164,10.164S114.592,156.868,108.988,156.868z"/>
	</g>
</g>
<g>
	<g>
		<path d="M189.815,85.807c-13.875,0-25.164,11.289-25.164,25.164s11.288,25.164,25.164,25.164
			c13.875,0,25.164-11.289,25.164-25.164S203.69,85.807,189.815,85.807z M189.815,121.135c-5.604,0-10.164-4.56-10.164-10.164
			s4.559-10.164,10.164-10.164c5.604,0,10.164,4.56,10.164,10.164S195.419,121.135,189.815,121.135z"/>
	</g>
</g>
<g>
	<g>
		<path d="M126.652,0c-13.875,0-25.164,11.289-25.164,25.164s11.289,25.164,25.164,25.164c13.875,0,25.164-11.289,25.164-25.164
			S140.527,0,126.652,0z M126.652,35.328c-5.604,0-10.164-4.56-10.164-10.164S121.048,15,126.652,15
			c5.604,0,10.164,4.56,10.164,10.164S132.256,35.328,126.652,35.328z"/>
	</g>
</g>
<g>
</g>
<g>
</g>
<g>
</g>
<g>
</g>
<g>
</g>
<g>
</g>
<g>
</g>
<g>
</g>
<g>
</g>
<g>
</g>
<g>
</g>
<g>
</g>
<g>
</g>
<g>
</g>
<g>
</g>
</svg>
