<svg id="Capa_1" enable-background="new 0 0 512 512" height="512" viewBox="0 0 512 512" width="512" xmlns="http://www.w3.org/2000/svg"><g><g><path d="m465.706 40.559h-87.895c-4.142 0-7.5 3.357-7.5 7.5s3.358 7.5 7.5 7.5h87.895c4.142 0 7.5-3.357 7.5-7.5s-3.358-7.5-7.5-7.5z"/><path d="m465.706 75.559h-87.895c-4.142 0-7.5 3.357-7.5 7.5s3.358 7.5 7.5 7.5h87.895c4.142 0 7.5-3.357 7.5-7.5s-3.358-7.5-7.5-7.5z"/><path d="m504.5 58.247c4.142 0 7.5-3.357 7.5-7.5v-21.486c0-16.089-13.089-29.178-29.178-29.178h-122.128c-16.088 0-29.177 13.089-29.177 29.177v77.799c0 16.088 13.089 29.177 29.177 29.177.857 0 1.554.697 1.554 1.554v32.698c0 5.85 3.576 10.854 9.11 12.75 5.558 1.9 11.439.118 15.013-4.489l32.514-41.911c.292-.377.751-.602 1.228-.602h62.71c16.088 0 29.177-13.089 29.177-29.178v-21.248c0-4.143-3.358-7.5-7.5-7.5s-7.5 3.357-7.5 7.5v21.248c0 7.817-6.36 14.178-14.177 14.178h-62.71c-5.153 0-9.919 2.335-13.079 6.406l-29.786 38.396v-28.248c0-9.128-7.426-16.554-16.554-16.554-7.817 0-14.177-6.359-14.177-14.177v-77.799c0-7.817 6.36-14.177 14.177-14.177h122.128c7.817 0 14.178 6.36 14.178 14.178v21.486c0 4.143 3.358 7.5 7.5 7.5z"/><path d="m493.527 457.815h-109.3v-37.866c0-4.143-3.358-7.5-7.5-7.5s-7.5 3.357-7.5 7.5v37.866h-140.916v-92.654l31.452-4.316c5.91-.812 10.739-5.055 12.304-10.812l3.598-13.239 7.265 1.233c7.928 1.339 15.581-3.987 17.068-11.887l5.896-31.322c14.913 3 26.604 6.291 34.094 9.626 17.762 7.909 29.239 25.583 29.239 45.025v35.383c0 4.143 3.358 7.5 7.5 7.5s7.5-3.357 7.5-7.5v-35.383c0-25.36-14.97-48.412-38.138-58.729-9.496-4.228-23.777-8.144-42.486-11.652-8.87-14.386-32.876-28.087-33.926-28.91 5.016-3.691 7.484-8.466 7.755-13.81 12.691-11.882 20.693-28.051 22.733-46.017 10.396-1.035 18.541-9.832 18.541-20.495v-14.515c0-6.044-2.625-11.646-7.058-15.503v-36.627c0-34.548-28.107-62.655-62.656-62.655h-56.882c-13.284 0-25.151 8.424-29.53 20.962-.154.441-.622.75-1.138.75-17.353 0-31.47 14.117-31.47 31.47v46.101c-4.433 3.857-7.058 9.458-7.058 15.503v14.515c0 10.663 8.146 19.46 18.541 20.495 2.04 17.974 10.047 34.146 22.733 46.017.269 5.32 2.72 10.106 7.755 13.81-.515.405-25.27 14.865-33.927 28.91-18.708 3.508-32.989 7.424-42.485 11.652-16.044 7.144-28.243 20.316-34.194 36.622h-3.013c-7.812 0-14.168 6.355-14.168 14.167v11.595c0 6.149 3.945 11.38 9.43 13.336v10.573c0 .142-.032.278-.093.405l-39.538 80.957c-8.005 2.024-13.955 9.267-13.955 17.892v17.156c0 10.186 8.287 18.473 18.473 18.473h475.055c10.186 0 18.473-8.287 18.473-18.473v-17.156c-.001-10.185-8.288-18.473-18.474-18.473zm-231.068-222.334c0 .865-.396 1.68-1.06 2.179-24.617 18.493-56.57 18.485-81.176 0-.664-.499-1.06-1.313-1.06-2.179v-30.607c0-.375.305-.68.679-.68h81.938c.375 0 .679.305.679.68zm-80.791 48.422c3.724-3.593 5.86-8.621 5.86-13.794v-10.775c20.655 9.319 44.466 9.97 66.564 0v10.775c0 5.172 2.136 10.2 5.859 13.793.134.13.162.312.064.432-.459.573 2.038-3.195-39.206 60.484-41.238-63.67-38.746-59.912-39.205-60.484-.096-.12-.068-.303.064-.431zm108.751 2.47c.933 1.115 1.315 2.587 1.047 4.011l-6.18 32.829-7.252-1.229c-7.575-1.287-14.792 3.33-16.806 10.738l-3.609 13.277-21.624 2.967 35.987-55.585c4.69-6.186 4.03-14.824-1.614-20.271-1.824-1.761-1.134-4.132-1.275-5.5 8.032 5.136 15.207 11.449 21.326 18.763zm-145.446-192.633c0-9.081 7.388-16.47 16.47-16.47 6.894 0 13.042-4.342 15.299-10.805 2.279-6.523 8.455-10.907 15.369-10.907h56.883c26.277 0 47.656 21.378 47.656 47.655v34.471c-3.366.93-6.626 2.171-9.757 3.716v-25.436c0-15.525-12.631-28.156-28.157-28.156h-.248c-11.606 0-15.557 4.642-28.988 4.642h-17.375c-12.807 0-17.864-4.642-28.988-4.642h-.248c-15.526 0-28.157 12.631-28.157 28.156v23.533c-3.385-1.416-6.827-2.224-9.757-2.683v-43.074zm11.224 93.314c-.585-6.612-6.039-11.599-12.686-11.599-3.086 0-5.597-2.511-5.597-5.597v-14.515c0-1.557.645-3.007 1.745-4.048 3.735.277 10.094 1.388 13.283 4.534 6.206 6.121 16.788 1.765 16.788-7.007v-32.857c0-7.255 5.902-13.156 13.157-13.156h.248c8.221 0 13.768 4.642 28.988 4.642h17.375c15.108 0 20.802-4.642 28.988-4.642h.248c7.255 0 13.157 5.901 13.157 13.156.001 41.027-.038 28.069.001 30.665.12 9.391 10.512 14.832 18.375 10.021 3.758-2.3 7.817-3.953 12.087-4.936.856.996 1.353 2.27 1.353 3.629v14.515c0 3.086-2.511 5.597-5.597 5.597-6.646 0-12.1 4.986-12.686 11.598-.816 9.211-3.561 17.847-7.965 25.42v-7.599c0-8.646-7.034-15.68-15.679-15.68h-81.938c-8.646 0-15.679 7.034-15.679 15.68v7.608c-4.401-7.569-7.149-16.211-7.966-25.429zm16.332 80.556c-.14 1.358.548 3.739-1.277 5.5-5.642 5.447-6.301 14.086-1.612 20.271l35.987 55.585-21.624-2.967-3.609-13.278c-2.014-7.408-9.241-12.016-16.804-10.738l-7.254 1.23-6.18-32.829c-.267-1.417.109-2.891 1.046-4.011 6.119-7.314 13.294-13.627 21.327-18.763zm-70.895 36.835c7.489-3.335 19.181-6.626 34.093-9.626l5.896 31.322c1.487 7.899 9.146 13.227 17.067 11.887l7.266-1.233 3.598 13.239c1.564 5.757 6.394 10 12.304 10.812l31.452 4.316v92.654h-64.024l-39.254-80.376c-.062-.127-.093-.263-.093-.404v-10.573c5.486-1.955 9.43-7.187 9.43-13.336v-11.595c0-7.812-6.355-14.167-14.167-14.167h-27.564c5.053-10.109 13.437-18.218 23.996-22.92zm-33.047 72.59v-9.741h26.353v9.741c0 2.408.559 4.825 1.615 6.987l11.706 23.969c-.447.157-.865.208-1.64.208-3.227 0-4.857-3.068-12.431-3.068-7.596 0-9.186 3.068-12.429 3.068-3.225 0-4.868-3.068-12.429-3.068-8.583 0-10.181 4.234-14.066 2.859l11.706-23.969c1.057-2.163 1.615-4.579 1.615-6.986zm-19.913 44.454c10.244 4.687 17.488-1.358 20.659-1.358 3.225 0 4.868 3.068 12.429 3.068 7.49 0 9.233-3.068 12.429-3.068 3.227 0 4.857 3.068 12.431 3.068 3.878 0 6.421-.881 8.233-1.709l17.74 36.325h-101.662zm10.483-79.125h45.214v9.93h-45.214zm437.843 151.08c0 1.915-1.558 3.473-3.473 3.473h-475.054c-1.915 0-3.473-1.558-3.473-3.473v-17.156c0-1.915 1.558-3.473 3.473-3.473h.411c.012 0 .023.002.035.002.009 0 .019-.002.028-.002h474.581c1.915 0 3.473 1.558 3.473 3.473v17.156z"/><path d="m278.654 377.354c-7.096 0-12.869 5.773-12.869 12.869v24.357c0 7.096 5.773 12.869 12.869 12.869h53.133c7.096 0 12.869-5.773 12.869-12.869v-24.357c0-7.096-5.773-12.869-12.869-12.869zm51.002 35.095h-48.871v-20.096h48.871z"/></g></g></svg>